<svg viewBox="0 0 500 500" width="200" height="200" xmlns="http://www.w3.org/2000/svg">
  <defs>
    <linearGradient gradientUnits="userSpaceOnUse" x1="241.703" y1="106.884" x2="241.703" y2="388.956" id="gradient-0" spreadMethod="pad" gradientTransform="matrix(0.029647, -0.000426, 0.001871, 0.130272, 232.128925, 214.089719)">
      <stop offset="0" style="stop-color: rgba(255, 0, 0, 0);"></stop>
      <stop offset="1" style="stop-color: rgb(255, 0, 0);"></stop>
    </linearGradient>
  </defs>
  <g>
    <title>Electron</title>
    <circle cx="250" cy="250" r="250" style="stroke-width: 0px; fill: rgb(43, 46, 58);"></circle>
    <path d="M 274.782 82.863 C 298.068 91.459 319.256 123.185 332.974 172.051 C 339.795 196.348 344.091 224.991 344.26 256.14 C 344.344 271.69 343.402 288.14 341.267 304.992 C 340.201 313.412 338.819 322.067 337.128 330.76 C 336.283 335.106 335.347 339.528 334.337 343.935 C 333.327 348.341 331.086 357.108 331.086 357.108 C 331.076 357.152 331.086 357.108 331.086 357.108 C 330.407 360.068 327.457 361.919 324.496 361.24 C 321.536 360.561 319.685 357.611 320.364 354.65 C 320.364 354.65 320.374 354.606 320.364 354.65 C 320.364 354.65 322.626 345.796 323.615 341.477 C 324.605 337.16 325.503 332.917 326.331 328.66 C 327.986 320.149 329.31 311.853 330.355 303.609 C 332.442 287.133 333.342 271.405 333.26 256.199 C 333.095 225.837 329.019 198.662 322.383 175.024 C 309.189 128.022 288.884 102.856 271.316 93.395 M 274.697 81.532 C 274.697 88.095 271.575 95.091 267.317 99.349 C 263.059 103.607 256.063 106.729 249.5 106.729 C 242.937 106.729 235.941 103.607 231.683 99.349 C 227.425 95.091 224.303 88.095 224.303 81.532 C 224.303 74.969 227.425 67.973 231.683 63.715 C 235.941 59.457 242.937 56.335 249.5 56.335 C 256.063 56.335 263.059 59.457 267.317 63.715 C 271.575 67.973 274.697 74.969 274.697 81.532 Z M 259.539 71.493 C 256.667 68.622 253.815 67.335 249.5 67.335 C 245.185 67.335 242.333 68.622 239.461 71.493 C 236.59 74.365 235.303 77.217 235.303 81.532 C 235.303 85.847 236.59 88.699 239.461 91.571 C 242.333 94.442 245.185 95.729 249.5 95.729 C 253.815 95.729 256.667 94.442 259.539 91.571 C 262.41 88.699 263.697 85.847 263.697 81.532 C 263.697 77.217 262.41 74.365 259.539 71.493 Z" style="fill: rgb(0, 187, 255);"></path>
    <path d="M 181.143 362.744 C 179.889 359.977 176.63 358.751 173.863 360.004 C 171.096 361.258 169.87 364.517 171.123 367.284 C 171.123 367.284 171.083 367.192 171.123 367.284 C 171.123 367.284 175.109 377.552 177.309 382.407 C 179.513 387.27 181.865 391.955 184.255 396.259 C 189.049 404.894 194.36 412.635 199.794 418.999 C 210.764 431.85 223.691 440.542 236.378 443.777 C 249.183 447.043 263.453 445.032 276.069 437.972 C 288.475 431.03 300.798 418.563 311.537 401.631 C 313.156 399.061 312.384 395.665 309.813 394.047 C 307.243 392.428 303.847 393.2 302.229 395.771 C 292.246 411.752 281.789 422.166 270.698 428.373 C 259.817 434.462 249.876 435.868 239.097 433.119 C 228.2 430.339 218.172 423.584 208.16 411.857 C 203.102 405.932 198.414 399.101 193.872 390.919 C 191.593 386.815 189.442 382.53 187.328 377.866 C 185.211 373.195 181.143 362.744 181.143 362.744 C 181.183 362.836 181.143 362.744 181.143 362.744 Z" style="fill: rgb(0, 187, 255);"></path>
    <circle cx="249.215" cy="260.527" r="18.27" style="fill: rgb(0, 187, 255);"></circle>
    <path d="M 266.46 191.172 C 289.746 199.768 310.933 231.494 324.651 280.36 C 331.473 304.657 335.769 333.3 335.938 364.449 C 336.022 379.999 335.08 396.45 332.945 413.302 C 331.879 421.722 330.497 430.377 328.806 439.07 C 327.961 443.416 327.025 447.838 326.015 452.245 C 325.005 456.651 322.763 465.418 322.763 465.418 C 322.753 465.462 322.763 465.418 322.763 465.418 C 322.084 468.378 319.134 470.229 316.173 469.55 C 313.213 468.871 311.362 465.921 312.041 462.96 C 312.041 462.96 312.051 462.916 312.041 462.96 C 312.041 462.96 314.303 454.106 315.292 449.787 C 316.282 445.47 317.18 441.227 318.008 436.97 C 319.663 428.459 320.987 420.163 322.032 411.919 C 324.119 395.442 325.02 379.714 324.938 364.508 C 324.772 334.146 320.696 306.971 314.06 283.333 C 300.866 236.331 280.562 211.165 262.994 201.704 M 266.375 189.841 C 266.375 196.404 263.253 203.4 258.995 207.658 C 254.737 211.916 247.741 215.038 241.178 215.038 C 234.615 215.038 227.619 211.916 223.361 207.658 C 219.103 203.4 215.981 196.404 215.981 189.841 C 215.981 183.278 219.103 176.281 223.361 172.023 C 227.619 167.765 234.615 164.643 241.178 164.643 C 247.741 164.643 254.737 167.765 258.995 172.023 C 263.253 176.281 266.375 183.278 266.375 189.841 Z M 251.217 179.801 C 248.345 176.93 245.493 175.643 241.178 175.643 C 236.863 175.643 234.011 176.93 231.139 179.801 C 228.268 182.674 226.981 185.526 226.981 189.841 C 226.981 194.156 228.268 197.008 231.139 199.88 C 234.011 202.751 236.863 204.038 241.178 204.038 C 245.493 204.038 248.345 202.751 251.217 199.88 C 254.088 197.008 255.375 194.156 255.375 189.841 C 255.375 185.526 254.088 182.674 251.217 179.801 Z" style="fill: rgb(0, 187, 255);" transform="matrix(-0.507343, 0.861744, -0.861744, -0.507343, 689.286047, 240.270261)"></path>
    <path d="M 69.209 143.457 C 67.955 140.69 64.696 139.464 61.929 140.717 C 59.162 141.971 57.936 145.23 59.189 147.997 C 59.189 147.997 59.149 147.905 59.189 147.997 C 59.189 147.997 63.175 158.265 65.375 163.12 C 67.579 167.983 69.931 172.668 72.321 176.972 C 77.115 185.607 82.426 193.348 87.86 199.712 C 98.83 212.563 111.757 221.256 124.444 224.491 C 137.249 227.757 151.519 225.746 164.135 218.685 C 176.541 211.743 188.864 199.276 199.603 182.344 C 201.222 179.774 200.45 176.378 197.879 174.76 C 195.309 173.141 191.913 173.913 190.295 176.484 C 180.312 192.465 169.855 202.879 158.764 209.086 C 147.883 215.175 137.942 216.581 127.163 213.832 C 116.266 211.052 106.238 204.297 96.226 192.57 C 91.168 186.645 86.48 179.814 81.938 171.632 C 79.659 167.528 77.508 163.243 75.394 158.579 C 73.277 153.908 69.209 143.457 69.209 143.457 C 69.249 143.549 69.209 143.457 69.209 143.457 Z" style="fill: rgb(0, 187, 255);" transform="matrix(-0.487703, 0.87301, -0.87301, -0.487703, 352.632479, 159.308671)"></path>
    <path d="M 177.249 131.455 C 200.535 140.051 221.723 171.777 235.441 220.643 C 242.262 244.94 246.558 273.583 246.727 304.732 C 246.811 320.282 245.869 336.732 243.734 353.584 C 242.668 362.004 241.286 370.659 239.595 379.352 C 238.75 383.698 237.814 388.12 236.804 392.527 C 235.794 396.933 233.553 405.7 233.553 405.7 C 233.543 405.744 233.553 405.7 233.553 405.7 C 232.874 408.66 229.924 410.511 226.963 409.832 C 224.003 409.153 222.152 406.203 222.831 403.242 C 222.831 403.242 222.841 403.198 222.831 403.242 C 222.831 403.242 225.093 394.388 226.082 390.069 C 227.072 385.752 227.97 381.509 228.798 377.252 C 230.453 368.741 231.777 360.445 232.822 352.201 C 234.909 335.725 235.809 319.997 235.727 304.791 C 235.562 274.429 231.486 247.254 224.85 223.616 C 211.656 176.614 191.351 151.448 173.783 141.987 M 177.164 130.124 C 177.164 136.687 174.042 143.683 169.784 147.941 C 165.526 152.199 158.53 155.321 151.967 155.321 C 145.404 155.321 138.408 152.199 134.15 147.941 C 129.892 143.683 126.77 136.687 126.77 130.124 C 126.77 123.561 129.892 116.565 134.15 112.307 C 138.408 108.049 145.404 104.927 151.967 104.927 C 158.53 104.927 165.526 108.049 169.784 112.307 C 174.042 116.565 177.164 123.561 177.164 130.124 Z M 162.006 120.085 C 159.134 117.214 156.282 115.927 151.967 115.927 C 147.652 115.927 144.8 117.214 141.928 120.085 C 139.057 122.957 137.77 125.809 137.77 130.124 C 137.77 134.439 139.057 137.291 141.928 140.163 C 144.8 143.034 147.652 144.321 151.967 144.321 C 156.282 144.321 159.134 143.034 162.006 140.163 C 164.877 137.291 166.164 134.439 166.164 130.124 C 166.164 125.809 164.877 122.957 162.006 120.085 Z" style="fill: rgb(0, 187, 255);" transform="matrix(-0.506864, -0.862026, 0.862026, -0.506864, 59.480153, 548.925897)"></path>
    <path d="M 315.704 156.799 C 314.45 154.032 311.191 152.806 308.424 154.059 C 305.657 155.313 304.431 158.572 305.684 161.339 C 305.684 161.339 305.644 161.247 305.684 161.339 C 305.684 161.339 309.67 171.607 311.87 176.462 C 314.074 181.325 316.426 186.01 318.816 190.314 C 323.61 198.949 328.921 206.69 334.355 213.054 C 345.325 225.905 358.252 234.598 370.939 237.833 C 383.744 241.099 398.014 239.088 410.63 232.027 C 423.036 225.085 435.359 212.618 446.098 195.686 C 447.717 193.116 446.945 189.72 444.374 188.102 C 441.804 186.483 438.408 187.255 436.79 189.826 C 426.807 205.807 416.35 216.221 405.259 222.428 C 394.378 228.517 384.437 229.923 373.658 227.174 C 362.761 224.394 352.733 217.639 342.721 205.912 C 337.663 199.987 332.975 193.156 328.433 184.974 C 326.154 180.87 324.003 176.585 321.889 171.921 C 319.772 167.25 315.704 156.799 315.704 156.799 C 315.744 156.891 315.704 156.799 315.704 156.799 Z" style="fill: rgb(0, 187, 255);" transform="matrix(-0.503955, -0.86373, 0.86373, -0.503955, 395.90047, 620.291398)"></path>
  </g>
  <rect x="171.185" y="106.884" width="141.037" height="282.072" style="stroke-width: 11px; fill: url(#gradient-0); fill-rule: nonzero; paint-order: fill; stroke: rgb(0, 0, 0);" transform="matrix(0.643868, 0.765137, -0.765137, 0.643868, 276.597595, -89.031136)" rx="27.98" ry="27.98"></rect>
  <line style="stroke: rgb(0, 0, 0); fill: none; stroke-width: 11px; stroke-linecap: round;" x1="132.94" y1="345.109" x2="85.929" y2="384.498"></line>
  <path d="M 414.072 147.221 L 375.296 99.702 M 395.319 124.097 L 348.307 163.486" style="stroke: rgb(0, 0, 0); fill: none; stroke-width: 11px; stroke-linecap: round;"></path>
</svg>